<?xml version="1.0" encoding="UTF-8"?>
<!DOCTYPE svg PUBLIC "-//W3C//DTD SVG 1.1//EN" "http://www.w3.org/Graphics/SVG/1.1/DTD/svg11.dtd">
<!-- Creator: CorelDRAW 2021.5 (Versão de avaliação) -->
<svg xmlns="http://www.w3.org/2000/svg" xml:space="preserve" width="297mm" height="210mm" version="1.1" style="shape-rendering:geometricPrecision; text-rendering:geometricPrecision; image-rendering:optimizeQuality; fill-rule:evenodd; clip-rule:evenodd"
viewBox="0 0 29700 21000"
 xmlns:xlink="http://www.w3.org/1999/xlink"
 xmlns:xodm="http://www.corel.com/coreldraw/odm/2003">
 <defs>
  <style type="text/css">
   <![CDATA[
    .fil0 {fill:url(#id1);fill-rule:nonzero}
    .fil1 {fill:url(#id2);fill-rule:nonzero}
   ]]>
  </style>
    <clipPath id="id0">
     <path d="M543.07 14795.43l28697.52 0 0 5316.36 -28697.52 0 0 -5316.36z"/>
    </clipPath>
  <radialGradient id="id1" gradientUnits="userSpaceOnUse" gradientTransform="matrix(1.61309 0.00495487 0.00495487 -1.61309 -9721 2289)" cx="15849.02" cy="906.12" r="14219.78" fx="15849.02" fy="906.12">
   <stop offset="0" style="stop-opacity:1; stop-color:#3698CB"/>
   <stop offset="0.0509804" style="stop-opacity:1; stop-color:#3698CB"/>
   <stop offset="0.729412" style="stop-opacity:1; stop-color:#2B3144"/>
   <stop offset="1" style="stop-opacity:1; stop-color:#2B3144"/>
  </radialGradient>
  <radialGradient id="id2" gradientUnits="userSpaceOnUse" gradientTransform="matrix(1.61062 -0.0131996 -0.0131996 -1.61062 -9494 39509)" xlink:href="#id1" cx="15872.78" cy="15053.52" r="14296.64" fx="15872.78" fy="15053.52">
  </radialGradient>
 </defs>
 <g id="Camada_x0020_1">
  <metadata id="CorelCorpID_0Corel-Layer"/>
  <path class="fil0" d="M8483.7 12032.79c-738.22,326.49 -1490.91,488.56 -2257.99,486.21 -1095.88,-3.37 -2106.06,-330.25 -3030.57,-980.65 -924.51,-650.39 -1634.12,-1534.25 -2128.82,-2651.58 -385.83,-877.87 -577.37,-1765.14 -574.63,-2661.74 3.31,-1075.93 280.25,-2041.44 830.81,-2896.54 570.65,-904.83 1374.71,-1584.78 2412.2,-2039.85 927.81,-415.58 1854.96,-621.96 2781.44,-619.11 1235.34,3.81 2011.31,359.87 2327.92,1068.15 89,219.47 133.13,438.76 132.47,657.92 -1.71,557.91 -251.98,950.64 -750.77,1178.27 -309.26,128.56 -802.44,144.47 -1479.58,47.77 -677.16,-96.75 -1300.09,-16.46 -1868.7,240.81 -907.81,395.7 -1363.3,1111.63 -1366.48,2147.7 -1.62,527.98 121.24,1071.32 368.59,1630 593.57,1356.71 1428.33,2036.73 2504.27,2040.04 577.81,1.78 1101.42,-195.88 1570.92,-592.95 509.32,-406.89 764.86,-894.24 766.6,-1462.1 0.5,-159.4 -23.89,-328.84 -73.16,-508.32l-1032.55 472.53c-199.53,91.53 -398.92,135.75 -598.17,135.13 -597.76,-1.82 -1020.26,-287.05 -1267.58,-858.15 -89.02,-202.02 -133.24,-401.41 -132.63,-600.63 1.77,-580.34 291.96,-1000.36 870.56,-1257.61l2319.46 -1028.95c299.28,-128.61 578.4,-192.48 837.43,-191.69 617.66,1.9 1099.66,386.91 1446,1155.09 356.1,827.97 532.9,1650.43 530.39,2467.33 -3.07,996.25 -264.87,1897.04 -785.37,2702.4 -550.49,825.2 -1334.5,1465.37 -2352.06,1920.52zm4329.78 -8459.77c-428.49,28.55 -806.65,-112.06 -1134.43,-421.92 -327.85,-309.85 -506.03,-679.02 -534.57,-1107.47 -18.69,-408.52 124.4,-776.68 429.27,-1104.51 304.85,-327.81 666.51,-501.08 1085.01,-519.72 418.5,-28.58 794.2,104.57 1127.04,399.49 332.81,294.9 508.56,651.61 527.18,1070.07 18.62,438.42 -117.06,824.05 -407.02,1156.91 -289.94,332.83 -654.11,508.57 -1092.48,527.15zm435.83 8922.71c-428.47,28.59 -784.23,-99.56 -1067.3,-384.33 -283.03,-284.79 -433.84,-651.37 -452.38,-1099.76l-281.27 -5739.26c-28.5,-448.39 84.74,-826.61 339.73,-1134.64 255,-308.09 596.72,-476.39 1025.18,-504.95 428.45,-18.6 784.21,114.48 1067.23,399.3 283.1,284.78 433.86,651.38 452.42,1099.74l296.18 5739.29c18.55,448.35 -99.63,826.59 -354.64,1134.61 -255,308.06 -596.7,471.4 -1025.15,490zm4732.71 -8279.21c319.83,-347.72 783.57,-500.7 1391.15,-458.97 378.47,31.03 691.83,181.45 940.04,451.21 268.07,309.64 386.42,698.54 355.11,1166.67 -31.24,438.27 -276.33,766.26 -735.28,984.03 -428.85,148.12 -857.69,296.24 -1286.51,444.37 -458.9,197.85 -703.87,485.98 -734.93,864.47l-234.24 3286.9c-41.23,448.18 -206.74,811.31 -496.47,1089.36 -289.77,278.05 -648.8,401.49 -1077.09,370.27 -418.33,-31.18 -751.54,-204.04 -999.65,-518.61 -248.07,-314.58 -356.5,-695.98 -325.25,-1144.18l421.42 -5841.72c41.27,-458.13 231.63,-811.23 571.12,-1059.22 299.55,-218.25 638.57,-311.86 1017.03,-280.83 587.65,41.67 985.5,257.07 1193.55,646.25zm9869.37 7591.85c-129.58,29.48 -259.13,44.03 -388.62,43.64 -338.75,-1.03 -632.26,-131.5 -880.49,-391.26 -430.23,586.48 -999.19,958.29 -1707.02,1115.52 -289.12,68.87 -578.16,102.85 -867.06,101.96 -936.44,-2.86 -1769.76,-336.71 -2499.98,-1001.44 -730.21,-664.75 -1223.16,-1540.49 -1478.82,-2627.16 -88.44,-398.78 -132.05,-797.39 -130.81,-1195.91 3.08,-1006.18 274.79,-1889.52 815.08,-2649.97 540.32,-760.51 1254.12,-1243.96 2141.4,-1450.46 249.25,-59 493.43,-88.14 732.5,-87.41 468.23,1.44 901.27,107.38 1299.15,317.79 180.68,-437.75 510.27,-715.72 988.83,-833.79 159.51,-29.39 308.97,-43.88 448.44,-43.45 657.53,2.03 1099.33,491.56 1325.47,1468.53l1179.55 5189.12c68.78,319 102.85,583.09 102.19,792.32 -2.08,677.44 -361.99,1094.77 -1079.81,1251.97zm-5053.61 -4005.51c-0.62,199.25 18.72,403.53 57.93,612.88 98.29,428.68 276.52,782.89 534.7,1062.63 258.15,279.75 556.58,420.15 895.31,421.18 388.54,1.21 687.9,-152.32 898.05,-460.49 200.08,-268.37 300.73,-606.8 301.97,-1015.26 0.58,-189.3 -23.68,-388.61 -72.85,-597.98 -98.28,-438.64 -276.5,-800.32 -534.63,-1085.06 -258.17,-284.69 -551.62,-427.58 -880.36,-428.58 -388.55,-1.19 -685.37,144.85 -890.53,438.12 -205.12,293.25 -308.32,644.11 -309.59,1052.56z"/>
  <g id="_1960459013424">
   <g style="clip-path:url(#id0)">
    <image x="543.07" y="14795.43" width="28697.52" height="5316.36" xlink:href="Logo_Images\Logo_ImgID1.png"/>
   </g>
  </g>
  <path class="fil1" d="M2003.41 15870.22l-638.48 -905.18 -646.58 5.32 30.87 3765.54c1.35,165.49 74.53,258.01 260.75,256.49 186.2,-1.52 257.86,-95.22 256.49,-260.74l-25.02 -3051.76 10.35 -0.08 497.38 725.31 0.67 82.75c1.3,160.35 74.95,309.76 261.16,308.21 196.57,-1.59 257.4,-152.11 256.07,-312.46l-0.67 -82.76 485.4 -733.34 10.35 -0.07 25.03 3051.73c1.34,165.51 74.54,258.04 260.74,256.52 186.19,-1.53 257.85,-95.23 256.49,-260.75l-30.85 -3765.54 -646.55 5.3 -623.6 915.51zm2526.59 2167.4c2.67,325.87 86.43,449.32 346.84,664.45 260.41,215.12 364.18,255.66 679.7,253.07l393.11 -3.25c315.51,-2.56 418.61,-44.78 675.5,-264.14 256.83,-219.39 338.57,-344.18 335.91,-670.04l-7.69 -936.23c-2.7,-331.05 -70.87,-444.29 -320.84,-643.99 -244.74,-199.74 -359.18,-276.35 -705.73,-273.53l-393.1 3.22c-346.56,2.85 -459.72,81.34 -701.16,285.06 -246.62,203.78 -312.93,318.1 -310.23,649.16l7.69 936.22zm488.86 -940.29c-0.84,-103.47 34.83,-171 178.63,-296.31 107.86,-94 185.09,-136.03 340.28,-137.29l393.11 -3.22c155.16,-1.27 233.09,39.47 342.49,131.7 145.82,122.93 182.6,189.88 183.44,293.35l7.67 936.21c0.85,103.44 -34.82,170.97 -178.6,296.32 -107.88,93.97 -185.14,135.99 -340.3,137.25l-393.11 3.22c-155.18,1.26 -233.09,-39.47 -342.47,-131.66 -145.86,-122.97 -182.62,-189.92 -183.47,-293.36l-7.67 -936.21zm4455.5 -419.3c51.5,-31.47 103.07,-47.41 154.83,-47.84l165.51 -1.34c300,-2.48 326.83,116.29 339.68,421.37l64.26 1530.63c6.54,165.46 49.31,335.83 251.05,334.17 222.4,-1.82 246.65,-198.57 240.04,-374.4l-64.53 -1561.64c-12.55,-268.88 -3.92,-481.06 -227.91,-670.6 -151.1,-128.11 -270.44,-178.85 -461.83,-177.26l-367.24 3c-160.35,1.33 -299.35,85.23 -427.97,169.03l-401.31 267.09 -0.08 -10.33 -0.47 -56.91c-1.44,-175.88 -28.81,-361.85 -251.21,-360.03 -227.6,1.88 -246.75,188.24 -245.28,369.3l17.04 2079.31c1.4,170.68 38.98,341.08 251.08,339.35 212.07,-1.74 246.87,-172.74 245.47,-343.43l-11.83 -1443.08 730.7 -466.39zm2502.47 1117.5c1.66,201.72 13.03,330.95 158.97,464.25l312.65 276.76c151.1,133.26 270.2,147.81 373.64,146.96l584.48 -4.81c139.67,-1.14 293.78,-131.69 406.63,-246.45l102.62 -104.29 5.58 682.78c0.77,93.12 -29.66,165.75 -70.69,207.48l-123.2 114.83c-77.07,67.86 -143.91,114.98 -247.38,115.82l-910.34 7.45c-165.52,1.37 -341.09,39.01 -339.35,251.09 1.78,217.23 198.58,246.67 343.42,245.49l822.42 -6.74c279.28,-2.3 403.21,-34.36 618.96,-217.17l164.37 -141.01c205.44,-177.55 240.89,-270.96 237.23,-720.98l-19.88 -2425.89c-1.37,-165.49 -28.73,-346.31 -245.97,-344.53 -170.71,1.4 -252.35,136.55 -251.09,291.71l0.48 56.91 -124.94 -97.27c-192.61,-148.44 -353.75,-245.38 -488.26,-244.28l-481.02 3.93c-129.32,1.07 -206.62,37.9 -309.39,121.51l-359.73 287.44c-102.75,83.62 -168.29,291.08 -166.4,523.83l6.19 755.18zm490.69 -717.86c-0.84,-103.47 3.46,-212.13 59.97,-259.14l205.54 -167.19c35.95,-31.36 82.36,-47.26 144.44,-47.77l362.07 -2.97c62.08,-0.51 134.88,50.64 228.66,127.47l385.32 312.36c36.48,30.75 52.53,97.86 53.08,165.11l2.99 362.07c0.56,67.24 -14.41,134.63 -50.38,165.96l-380.16 318.63c-92.49,78.36 -164.48,130.68 -226.56,131.19l-362.04 2.97c-62.08,0.52 -108.74,-14.63 -145.23,-45.38l-208.25 -163.81c-57.26,-46.07 -63.34,-154.67 -64.19,-258.11l-5.26 -641.39zm4672.04 -509.02c356.91,-2.92 440.18,58.48 443.22,430.88l0.96 113.8 -1065.56 8.73c-217.25,1.8 -408.33,39.53 -577.76,190.95 -184.87,167.06 -240.53,317.54 -238.59,555.45l1.8 217.24c2.11,258.63 55.29,439.22 263.6,608.23 182.26,148.51 342.84,173.07 565.24,171.24l475.86 -3.89c160.36,-1.32 165.52,-1.36 304.59,-74.91l339.95 -178.65c-4.04,139.68 126.16,247.24 255.51,246.18 165.48,-1.35 236.7,-146.78 230.37,-291.54l-65.55 -1685.82c-7.2,-248.23 -34.3,-398.01 -227.24,-587.85 -198.18,-194.93 -384.61,-219.26 -643.23,-217.15l-682.75 5.6c-165.52,1.37 -341.1,39.01 -339.36,251.08 1.78,217.24 198.6,246.65 343.43,245.47l615.51 -5.04zm122.38 1043.9c274.12,-2.24 352.39,79.86 354.64,354.02l0.89 108.6 -545.96 288.98 -548.28 4.52c-118.96,0.96 -321,-33.58 -322.34,-199.09l-2.73 -331.07c-1.49,-181.01 194.8,-218.82 329.28,-219.93l734.5 -6.03zm2163.22 121.93c1.66,201.73 13.02,330.98 158.96,464.28l312.66 276.73c151.11,133.26 270.2,147.82 373.62,146.95l584.49 -4.77c139.68,-1.14 293.79,-131.72 406.64,-246.48l102.61 -104.26 5.6 682.75c0.74,93.11 -29.68,165.78 -70.73,207.47l-123.2 114.83c-77.05,67.9 -143.91,114.98 -247.35,115.84l-910.37 7.46c-165.51,1.34 -341.07,39.02 -339.32,251.07 1.78,217.23 198.59,246.68 343.39,245.48l822.45 -6.73c279.28,-2.3 403.21,-34.36 618.97,-217.17l164.36 -141.01c205.44,-177.55 240.9,-270.96 237.22,-720.95l-19.9 -2425.9c-1.34,-165.51 -28.7,-346.33 -245.94,-344.55 -170.71,1.4 -252.36,136.58 -251.09,291.74l0.48 56.89 -124.94 -97.25c-192.62,-148.44 -353.78,-245.39 -488.26,-244.31l-481.03 3.96c-129.31,1.04 -206.61,37.87 -309.38,121.48l-359.74 287.47c-102.77,83.58 -168.31,291.05 -166.4,523.83l6.2 755.15zm490.69 -717.86c-0.85,-103.44 3.46,-212.1 59.96,-259.11l205.52 -167.23c35.98,-31.35 82.39,-47.25 144.47,-47.76l362.03 -2.95c62.11,-0.5 134.93,50.62 228.67,127.44l385.34 312.4c36.49,30.72 52.54,97.84 53.09,165.08l2.97 362.07c0.54,67.26 -14.42,134.62 -50.36,165.96l-380.19 318.65c-92.46,78.35 -164.45,130.66 -226.52,131.17l-362.05 2.97c-62.1,0.51 -108.74,-14.62 -145.23,-45.37l-208.25 -163.82c-57.26,-46.07 -63.34,-154.64 -64.19,-258.11l-5.26 -641.39zm5653.55 -672.24c-1.41,-170.69 -39.02,-341.07 -251.12,-339.34 -212.04,1.75 -246.87,172.72 -245.47,343.43l11.85 1443.1 -725.56 466.33c-46.3,31.41 -97.9,47.34 -154.78,47.8l-165.52 1.36c-118.95,0.97 -248.57,-28.98 -290.53,-101.05 -41.98,-72.1 -48.22,-206.53 -54.31,-320.28l-64.23 -1525.44c-6.52,-160.32 -33.85,-341.13 -245.93,-339.4 -227.59,1.88 -251.88,193.47 -245.2,374.44l64.5 1561.66c12.54,268.88 9.11,481.03 233.1,670.57 166.66,138.31 322.19,178.42 461.83,177.26l367.24 -3.03c134.5,-1.07 268.47,-64.26 427.97,-169.03l401.26 -267.1 0.7 82.76c1.4,170.69 39.05,346.26 251.12,344.52 263.79,-2.15 241.04,-255.46 240.11,-369.23l-17.03 -2079.33zm2742.64 132.71c356.91,-2.93 440.17,58.48 443.25,430.89l0.92 113.79 -1065.53 8.73c-217.26,1.77 -408.32,39.54 -577.78,190.94 -184.87,167.07 -240.53,317.54 -238.57,555.47l1.78 217.23c2.11,258.63 55.29,439.22 263.63,608.24 182.23,148.5 342.81,173.05 565.21,171.23l475.86 -3.89c160.36,-1.32 165.52,-1.37 304.59,-74.91l339.95 -178.65c-4.04,139.67 126.16,247.24 255.51,246.18 165.51,-1.34 236.73,-146.77 230.37,-291.54l-65.55 -1685.82c-7.2,-248.24 -34.3,-398.02 -227.24,-587.85 -198.19,-194.93 -384.61,-219.26 -643.23,-217.15l-682.75 5.6c-165.52,1.36 -341.09,38.98 -339.36,251.08 1.78,217.24 198.6,246.65 343.43,245.47l615.51 -5.04zm122.38 1043.9c274.12,-2.24 352.41,79.87 354.64,354.01l0.89 108.61 -545.96 288.98 -548.28 4.51c-118.96,0.97 -320.98,-33.57 -322.34,-199.09l-2.7 -331.05c-1.49,-181.01 194.77,-218.84 329.25,-219.95l734.5 -6.02zm-747.44 -2202.67c-72.07,41.98 -97.38,109.41 -96.83,176.65 1.02,124.19 100.45,263.02 229.74,261.97 31.06,-0.25 62,-10.87 92.89,-26.62l983.97 -494.32c72.11,-36.8 102.66,-99.13 107.27,-166.41 9.1,-150.08 -126.86,-330 -276.86,-328.78 -36.2,0.3 -77.51,10.96 -103.24,26.69l-936.94 550.82z"/>
 </g>
</svg>
